<svg xmlns="http://www.w3.org/2000/svg" width="22" height="24" viewBox="0 0 22 24">
  <path fill="#FFF" d="M9.62043601,18.6503067 L3.29080827,11.8118609 C2.71538757,11.190184 3.14695309,10.2576687 3.29080827,9.94683027 C3.43466345,9.63599182 3.86622897,9.4805726 4.15393932,9.4805726 C4.44164968,9.4805726 4.72936003,9.63599182 5.01707038,9.94683027 L9.18887048,14.4539877 L9.18887048,1.39877301 C9.18887048,0.621676892 9.76429118,0 10.4835671,0 C11.2028429,0 11.7782636,0.621676892 11.7782636,1.39877301 L11.7782636,14.4539877 L15.9500637,9.94683027 C16.3816293,9.4805726 17.2447603,9.4805726 17.6763259,9.94683027 C18.1078914,10.4130879 18.1078914,11.3456033 17.6763259,11.8118609 L11.3466981,18.6503067 C10.9151326,19.1165644 10.0520015,19.1165644 9.62043601,18.6503067 Z M20.961354,24 L1.00614499,24 C0.503072497,24 0,23.625 0,23.25 L0,21.75 C0,21.375 0.503072497,21 1.00614499,21 L20.961354,21 C21.4644265,21 21.967499,21.375 21.967499,21.75 L21.967499,23.25 C22.1351899,23.625 21.6321174,24 20.961354,24 Z"/>
</svg>
